<?xml version="1.0" encoding="UTF-8" standalone="no"?>
<!DOCTYPE svg PUBLIC "-//W3C//DTD SVG 1.1//EN"
 "http://www.w3.org/Graphics/SVG/1.1/DTD/svg11.dtd">
<!-- Generated by graphviz version 4.0.0 (20220529.0937)
 -->
<!-- Title: Tree Pages: 1 -->
<svg width="638pt" height="433pt"
 viewBox="0.00 0.00 638.00 433.00" xmlns="http://www.w3.org/2000/svg" xmlns:xlink="http://www.w3.org/1999/xlink">
<g id="graph0" class="graph" transform="scale(1 1) rotate(0) translate(4 429)">
<title>Tree</title>
<polygon fill="white" stroke="transparent" points="-4,4 -4,-429 634,-429 634,4 -4,4"/>
<!-- 0 -->
<g id="node1" class="node">
<title>0</title>
<path fill="#e5fad7" stroke="black" d="M456,-425C456,-425 336,-425 336,-425 330,-425 324,-419 324,-413 324,-413 324,-354 324,-354 324,-348 330,-342 336,-342 336,-342 456,-342 456,-342 462,-342 468,-348 468,-354 468,-354 468,-413 468,-413 468,-419 462,-425 456,-425"/>
<text text-anchor="middle" x="396" y="-409.8" font-family="Helvetica,sans-Serif" font-size="14.00">age &lt;= 30.5</text>
<text text-anchor="middle" x="396" y="-394.8" font-family="Helvetica,sans-Serif" font-size="14.00">gini = 0.778</text>
<text text-anchor="middle" x="396" y="-379.8" font-family="Helvetica,sans-Serif" font-size="14.00">samples = 18</text>
<text text-anchor="middle" x="396" y="-364.8" font-family="Helvetica,sans-Serif" font-size="14.00">value = [3, 6, 3, 3, 3]</text>
<text text-anchor="middle" x="396" y="-349.8" font-family="Helvetica,sans-Serif" font-size="14.00">class = Classical</text>
</g>
<!-- 1 -->
<g id="node2" class="node">
<title>1</title>
<path fill="#ffffff" stroke="black" d="M375,-306C375,-306 255,-306 255,-306 249,-306 243,-300 243,-294 243,-294 243,-235 243,-235 243,-229 249,-223 255,-223 255,-223 375,-223 375,-223 381,-223 387,-229 387,-235 387,-235 387,-294 387,-294 387,-300 381,-306 375,-306"/>
<text text-anchor="middle" x="315" y="-290.8" font-family="Helvetica,sans-Serif" font-size="14.00">age &lt;= 25.5</text>
<text text-anchor="middle" x="315" y="-275.8" font-family="Helvetica,sans-Serif" font-size="14.00">gini = 0.75</text>
<text text-anchor="middle" x="315" y="-260.8" font-family="Helvetica,sans-Serif" font-size="14.00">samples = 12</text>
<text text-anchor="middle" x="315" y="-245.8" font-family="Helvetica,sans-Serif" font-size="14.00">value = [3, 0, 3, 3, 3]</text>
<text text-anchor="middle" x="315" y="-230.8" font-family="Helvetica,sans-Serif" font-size="14.00">class = Acoustic</text>
</g>
<!-- 0&#45;&gt;1 -->
<g id="edge1" class="edge">
<title>0&#45;&gt;1</title>
<path fill="none" stroke="black" d="M367.9,-341.91C361.74,-333.01 355.16,-323.51 348.81,-314.33"/>
<polygon fill="black" stroke="black" points="351.62,-312.25 343.05,-306.02 345.87,-316.24 351.62,-312.25"/>
<text text-anchor="middle" x="338.58" y="-326.92" font-family="Helvetica,sans-Serif" font-size="14.00">True</text>
</g>
<!-- 8 -->
<g id="node9" class="node">
<title>8</title>
<path fill="#7be539" stroke="black" d="M537,-298.5C537,-298.5 417,-298.5 417,-298.5 411,-298.5 405,-292.5 405,-286.5 405,-286.5 405,-242.5 405,-242.5 405,-236.5 411,-230.5 417,-230.5 417,-230.5 537,-230.5 537,-230.5 543,-230.5 549,-236.5 549,-242.5 549,-242.5 549,-286.5 549,-286.5 549,-292.5 543,-298.5 537,-298.5"/>
<text text-anchor="middle" x="477" y="-283.3" font-family="Helvetica,sans-Serif" font-size="14.00">gini = 0.0</text>
<text text-anchor="middle" x="477" y="-268.3" font-family="Helvetica,sans-Serif" font-size="14.00">samples = 6</text>
<text text-anchor="middle" x="477" y="-253.3" font-family="Helvetica,sans-Serif" font-size="14.00">value = [0, 6, 0, 0, 0]</text>
<text text-anchor="middle" x="477" y="-238.3" font-family="Helvetica,sans-Serif" font-size="14.00">class = Classical</text>
</g>
<!-- 0&#45;&gt;8 -->
<g id="edge8" class="edge">
<title>0&#45;&gt;8</title>
<path fill="none" stroke="black" d="M424.1,-341.91C431.89,-330.65 440.36,-318.42 448.2,-307.11"/>
<polygon fill="black" stroke="black" points="451.22,-308.88 454.04,-298.67 445.47,-304.9 451.22,-308.88"/>
<text text-anchor="middle" x="458.51" y="-319.56" font-family="Helvetica,sans-Serif" font-size="14.00">False</text>
</g>
<!-- 2 -->
<g id="node3" class="node">
<title>2</title>
<path fill="#ffffff" stroke="black" d="M294,-187C294,-187 174,-187 174,-187 168,-187 162,-181 162,-175 162,-175 162,-116 162,-116 162,-110 168,-104 174,-104 174,-104 294,-104 294,-104 300,-104 306,-110 306,-116 306,-116 306,-175 306,-175 306,-181 300,-187 294,-187"/>
<text text-anchor="middle" x="234" y="-171.8" font-family="Helvetica,sans-Serif" font-size="14.00">gender &lt;= 0.5</text>
<text text-anchor="middle" x="234" y="-156.8" font-family="Helvetica,sans-Serif" font-size="14.00">gini = 0.5</text>
<text text-anchor="middle" x="234" y="-141.8" font-family="Helvetica,sans-Serif" font-size="14.00">samples = 6</text>
<text text-anchor="middle" x="234" y="-126.8" font-family="Helvetica,sans-Serif" font-size="14.00">value = [0, 0, 3, 3, 0]</text>
<text text-anchor="middle" x="234" y="-111.8" font-family="Helvetica,sans-Serif" font-size="14.00">class = Dance</text>
</g>
<!-- 1&#45;&gt;2 -->
<g id="edge2" class="edge">
<title>1&#45;&gt;2</title>
<path fill="none" stroke="black" d="M286.9,-222.91C280.74,-214.01 274.16,-204.51 267.81,-195.33"/>
<polygon fill="black" stroke="black" points="270.62,-193.25 262.05,-187.02 264.87,-197.24 270.62,-193.25"/>
</g>
<!-- 5 -->
<g id="node6" class="node">
<title>5</title>
<path fill="#ffffff" stroke="black" d="M456,-187C456,-187 336,-187 336,-187 330,-187 324,-181 324,-175 324,-175 324,-116 324,-116 324,-110 330,-104 336,-104 336,-104 456,-104 456,-104 462,-104 468,-110 468,-116 468,-116 468,-175 468,-175 468,-181 462,-187 456,-187"/>
<text text-anchor="middle" x="396" y="-171.8" font-family="Helvetica,sans-Serif" font-size="14.00">gender &lt;= 0.5</text>
<text text-anchor="middle" x="396" y="-156.8" font-family="Helvetica,sans-Serif" font-size="14.00">gini = 0.5</text>
<text text-anchor="middle" x="396" y="-141.8" font-family="Helvetica,sans-Serif" font-size="14.00">samples = 6</text>
<text text-anchor="middle" x="396" y="-126.8" font-family="Helvetica,sans-Serif" font-size="14.00">value = [3, 0, 0, 0, 3]</text>
<text text-anchor="middle" x="396" y="-111.8" font-family="Helvetica,sans-Serif" font-size="14.00">class = Acoustic</text>
</g>
<!-- 1&#45;&gt;5 -->
<g id="edge5" class="edge">
<title>1&#45;&gt;5</title>
<path fill="none" stroke="black" d="M343.1,-222.91C349.26,-214.01 355.84,-204.51 362.19,-195.33"/>
<polygon fill="black" stroke="black" points="365.13,-197.24 367.95,-187.02 359.38,-193.25 365.13,-197.24"/>
</g>
<!-- 3 -->
<g id="node4" class="node">
<title>3</title>
<path fill="#39e5c5" stroke="black" d="M132,-68C132,-68 12,-68 12,-68 6,-68 0,-62 0,-56 0,-56 0,-12 0,-12 0,-6 6,0 12,0 12,0 132,0 132,0 138,0 144,-6 144,-12 144,-12 144,-56 144,-56 144,-62 138,-68 132,-68"/>
<text text-anchor="middle" x="72" y="-52.8" font-family="Helvetica,sans-Serif" font-size="14.00">gini = 0.0</text>
<text text-anchor="middle" x="72" y="-37.8" font-family="Helvetica,sans-Serif" font-size="14.00">samples = 3</text>
<text text-anchor="middle" x="72" y="-22.8" font-family="Helvetica,sans-Serif" font-size="14.00">value = [0, 0, 3, 0, 0]</text>
<text text-anchor="middle" x="72" y="-7.8" font-family="Helvetica,sans-Serif" font-size="14.00">class = Dance</text>
</g>
<!-- 2&#45;&gt;3 -->
<g id="edge3" class="edge">
<title>2&#45;&gt;3</title>
<path fill="none" stroke="black" d="M173.68,-103.73C159.16,-93.92 143.7,-83.46 129.33,-73.75"/>
<polygon fill="black" stroke="black" points="131.25,-70.83 121.01,-68.13 127.33,-76.62 131.25,-70.83"/>
</g>
<!-- 4 -->
<g id="node5" class="node">
<title>4</title>
<path fill="#3c39e5" stroke="black" d="M294,-68C294,-68 174,-68 174,-68 168,-68 162,-62 162,-56 162,-56 162,-12 162,-12 162,-6 168,0 174,0 174,0 294,0 294,0 300,0 306,-6 306,-12 306,-12 306,-56 306,-56 306,-62 300,-68 294,-68"/>
<text text-anchor="middle" x="234" y="-52.8" font-family="Helvetica,sans-Serif" font-size="14.00">gini = 0.0</text>
<text text-anchor="middle" x="234" y="-37.8" font-family="Helvetica,sans-Serif" font-size="14.00">samples = 3</text>
<text text-anchor="middle" x="234" y="-22.8" font-family="Helvetica,sans-Serif" font-size="14.00">value = [0, 0, 0, 3, 0]</text>
<text text-anchor="middle" x="234" y="-7.8" font-family="Helvetica,sans-Serif" font-size="14.00">class = HipHop</text>
</g>
<!-- 2&#45;&gt;4 -->
<g id="edge4" class="edge">
<title>2&#45;&gt;4</title>
<path fill="none" stroke="black" d="M234,-103.73C234,-95.52 234,-86.86 234,-78.56"/>
<polygon fill="black" stroke="black" points="237.5,-78.3 234,-68.3 230.5,-78.3 237.5,-78.3"/>
</g>
<!-- 6 -->
<g id="node7" class="node">
<title>6</title>
<path fill="#e58139" stroke="black" d="M456,-68C456,-68 336,-68 336,-68 330,-68 324,-62 324,-56 324,-56 324,-12 324,-12 324,-6 330,0 336,0 336,0 456,0 456,0 462,0 468,-6 468,-12 468,-12 468,-56 468,-56 468,-62 462,-68 456,-68"/>
<text text-anchor="middle" x="396" y="-52.8" font-family="Helvetica,sans-Serif" font-size="14.00">gini = 0.0</text>
<text text-anchor="middle" x="396" y="-37.8" font-family="Helvetica,sans-Serif" font-size="14.00">samples = 3</text>
<text text-anchor="middle" x="396" y="-22.8" font-family="Helvetica,sans-Serif" font-size="14.00">value = [3, 0, 0, 0, 0]</text>
<text text-anchor="middle" x="396" y="-7.8" font-family="Helvetica,sans-Serif" font-size="14.00">class = Acoustic</text>
</g>
<!-- 5&#45;&gt;6 -->
<g id="edge6" class="edge">
<title>5&#45;&gt;6</title>
<path fill="none" stroke="black" d="M396,-103.73C396,-95.52 396,-86.86 396,-78.56"/>
<polygon fill="black" stroke="black" points="399.5,-78.3 396,-68.3 392.5,-78.3 399.5,-78.3"/>
</g>
<!-- 7 -->
<g id="node8" class="node">
<title>7</title>
<path fill="#e539c0" stroke="black" d="M618,-68C618,-68 498,-68 498,-68 492,-68 486,-62 486,-56 486,-56 486,-12 486,-12 486,-6 492,0 498,0 498,0 618,0 618,0 624,0 630,-6 630,-12 630,-12 630,-56 630,-56 630,-62 624,-68 618,-68"/>
<text text-anchor="middle" x="558" y="-52.8" font-family="Helvetica,sans-Serif" font-size="14.00">gini = 0.0</text>
<text text-anchor="middle" x="558" y="-37.8" font-family="Helvetica,sans-Serif" font-size="14.00">samples = 3</text>
<text text-anchor="middle" x="558" y="-22.8" font-family="Helvetica,sans-Serif" font-size="14.00">value = [0, 0, 0, 0, 3]</text>
<text text-anchor="middle" x="558" y="-7.8" font-family="Helvetica,sans-Serif" font-size="14.00">class = Jazz</text>
</g>
<!-- 5&#45;&gt;7 -->
<g id="edge7" class="edge">
<title>5&#45;&gt;7</title>
<path fill="none" stroke="black" d="M456.32,-103.73C470.84,-93.92 486.3,-83.46 500.67,-73.75"/>
<polygon fill="black" stroke="black" points="502.67,-76.62 508.99,-68.13 498.75,-70.83 502.67,-76.62"/>
</g>
</g>
</svg>
